<?xml version="1.0" encoding="UTF-8"?><!DOCTYPE svg PUBLIC "-//W3C//DTD SVG 1.1//EN" "http://www.w3.org/Graphics/SVG/1.1/DTD/svg11.dtd"><svg xmlns="http://www.w3.org/2000/svg"><symbol id="caterme-logo" viewBox="0 0 130 26"><path d="M.4 13.883C.4 7.305 5.943 2.13 12.552 2.13c4.337 0 8.227 2.17 10.292 5.775.619 1.002.206 2.037-.62 2.404-.792.401-1.859.2-2.272-.6-1.617-2.605-4.337-4.173-7.4-4.173-4.715 0-8.64 3.772-8.64 8.346 0 4.606 3.925 8.212 8.64 8.212 2.857 0 5.576-1.402 7.193-3.806.413-.802 1.687-1.002 2.273-.401.826.401 1.239 1.436.619 2.204-2.272 3.405-5.954 5.408-10.085 5.408-6.609 0-12.15-5.208-12.15-11.617m38.238 3.372c0-2.804-2.203-5.174-5.094-5.174-2.892 0-5.335 2.37-5.335 5.174 0 2.805 2.443 4.941 5.335 4.941 2.89 0 5.094-2.136 5.094-4.94m3.373 0v6.542c0 .969-.723 1.67-1.72 1.67-.69 0-1.653-.701-1.653-1.67-1.48 1.202-3.132 1.67-5.094 1.67-4.854 0-8.708-3.506-8.708-8.213 0-4.707 3.854-8.446 8.708-8.446 4.853 0 8.467 3.74 8.467 8.446m12.725-6.844c0 .902-.757 1.67-1.72 1.67h-2.444v11.784c0 .902-.758 1.67-1.721 1.67-.93 0-1.687-.768-1.687-1.67V12.08h-2.478c-.93 0-1.687-.768-1.687-1.67 0-.9.758-1.635 1.687-1.635h2.478V2.098c0-.901.757-1.636 1.687-1.636.963 0 1.72.735 1.72 1.636v6.677h2.445c.963 0 1.72.734 1.72 1.636m4.638 5.04h9.947c-.723-2.337-2.925-3.404-4.991-3.404-2.306 0-4.233 1.435-4.956 3.404m13.596 1.67c0 .9-.758 1.635-1.722 1.635H59.376c.723 2.003 2.65 3.439 4.956 3.439.792 0 2.203-.066 3.855-1.102.792-.5 1.859-.033 2.272.768.413.835-.035 1.703-.826 2.204-2.272 1.468-4.027 1.435-5.301 1.435-4.784 0-8.639-3.772-8.639-8.38 0-4.64 3.855-8.38 8.639-8.38 4.165 0 8.64 2.939 8.64 8.38m12.423-6.71c0 .902-.757 1.67-1.72 1.67-2.892 0-5.232 2.27-5.232 5.074v6.71c0 .902-.757 1.67-1.687 1.67-.963 0-1.72-.768-1.72-1.67v-6.71c0-4.64 3.889-8.38 8.639-8.38.963 0 1.72.735 1.72 1.637m22.647 13.687l-2.926-13.922-5.403 14.09a1.732 1.732 0 0 1-1.653 1.167c-.757 0-1.411-.5-1.652-1.168l-4.784-13.588-2.582 13.42c-.137.902-1.032 1.536-1.962 1.37-.963-.167-1.583-1.001-1.411-1.937l3.476-20.064c.138-.767.826-1.335 1.618-1.368a1.707 1.707 0 0 1 1.756 1.168l5.576 15.19 5.782-15.224c.241-.734.964-1.201 1.721-1.167.791.033 1.48.6 1.618 1.368l4.2 20.03c.171.902-.414 1.77-1.344 1.97-.103 0-.24.034-.344.034a1.743 1.743 0 0 1-1.686-1.37m8.155-8.646h9.947c-.722-2.337-2.925-3.404-4.99-3.404-2.307 0-4.234 1.435-4.957 3.404m13.596 1.67c0 .9-.758 1.635-1.721 1.635h-11.875c.723 2.003 2.65 3.439 4.956 3.439.792 0 2.203-.066 3.856-1.102.791-.5 1.858-.033 2.272.768.413.835-.035 1.703-.827 2.204-2.271 1.468-4.027 1.435-5.3 1.435-4.784 0-8.64-3.772-8.64-8.38 0-4.64 3.856-8.38 8.64-8.38 4.164 0 8.64 2.939 8.64 8.38" fill="#FFF" fill-rule="evenodd" opacity=".35"/></symbol></svg>